<?xml version="1.0" ?><svg height="74.672905" id="svg9" version="1.1" viewBox="0 0 74.672836 74.672905" width="74.672836" xmlns="http://www.w3.org/2000/svg" xmlns:svg="http://www.w3.org/2000/svg"><defs id="defs13"><clipPath clipPathUnits="userSpaceOnUse" id="clipPath69"><path d="M 0,64 H 64 V 0 H 0 Z" id="path67"/></clipPath></defs><g id="g61" transform="matrix(1.3333333,0,0,-1.3333333,-5.330133,80.003503)"><g id="g63"><g clip-path="url(#clipPath69)" id="g65"><g id="g71" transform="translate(9.8887,20.8818)"><path d="m 0,0 v -7.591 c 0,-1.617 1.134,-2.975 2.649,-3.318 z M 3.941,-12.993 H 3.402 C 0.423,-12.993 -2,-10.57 -2,-7.591 V 8.356 c 0,0.506 0.378,0.933 0.881,0.993 0.504,0.057 0.972,-0.266 1.091,-0.757 l 4.941,-20.349 c 0.072,-0.298 0.004,-0.613 -0.185,-0.854 -0.19,-0.242 -0.48,-0.382 -0.787,-0.382" id="path73" style="fill:#231f20;fill-opacity:1;fill-rule:nonzero;stroke:none"/></g><g id="g75" transform="translate(13.2905,54.1113)"><path d="M 0,0 C -1.617,0 -2.975,-1.134 -3.318,-2.649 L 7.591,0 Z m -4.402,-4.941 c -0.222,0 -0.44,0.073 -0.618,0.213 -0.241,0.19 -0.382,0.48 -0.382,0.787 v 0.539 C -5.402,-0.423 -2.979,2 0,2 H 15.947 C 16.454,2 16.88,1.622 16.94,1.119 17,0.616 16.675,0.148 16.183,0.028 L -4.166,-4.913 c -0.078,-0.019 -0.157,-0.028 -0.236,-0.028" id="path77" style="fill:#231f20;fill-opacity:1;fill-rule:nonzero;stroke:none"/></g><g id="g79" transform="translate(51.4624,54.0273)"><path d="m 0,0 2.649,-10.909 v 7.591 C 2.649,-1.701 1.515,-0.343 0,0 m 3.648,-20.265 c -0.456,0 -0.861,0.311 -0.971,0.764 L -2.264,0.848 c -0.072,0.298 -0.004,0.613 0.185,0.854 0.19,0.241 0.48,0.382 0.787,0.382 h 0.539 c 2.979,0 5.402,-2.423 5.402,-5.402 v -15.947 c 0,-0.506 -0.378,-0.933 -0.881,-0.993 -0.04,-0.005 -0.08,-0.007 -0.12,-0.007" id="path81" style="fill:#231f20;fill-opacity:1;fill-rule:nonzero;stroke:none"/></g><g id="g83" transform="translate(43.1182,9.8887)"><path d="m 0,0 h 7.591 c 1.617,0 2.975,1.134 3.318,2.649 z M 7.591,-2 H -8.356 c -0.506,0 -0.933,0.378 -0.993,0.881 -0.06,0.503 0.265,0.971 0.757,1.091 l 20.349,4.941 c 0.298,0.072 0.613,0.004 0.854,-0.185 0.242,-0.19 0.382,-0.48 0.382,-0.787 V 3.402 C 12.993,0.423 10.57,-2 7.591,-2" id="path85" style="fill:#231f20;fill-opacity:1;fill-rule:nonzero;stroke:none"/></g><g id="g87" transform="translate(58.8799,19.2803)"><path d="m 0,0 -3.77,15.479 -4.94,20.351 -0.13,0.53 c -0.57,2.35 -2.95,3.81 -5.32,3.24 l -15.48,-3.77 -20.35,-4.94 -0.53,-0.13 c -2.35,-0.571 -3.81,-2.95 -3.24,-5.321 l 3.77,-15.479 4.94,-20.35 0.13,-0.53 c 0.57,-2.351 2.95,-3.81 5.32,-3.24 l 15.48,3.77 20.35,4.94 0.53,0.13 C -0.89,-4.75 0.57,-2.37 0,0 Z" id="path89" style="fill:none;stroke:#231f20;stroke-width:2;stroke-linecap:round;stroke-linejoin:round;stroke-miterlimit:10;stroke-dasharray:none;stroke-opacity:1"/></g><g id="g91" transform="translate(43.2876,26.2729)"><path d="m 0,0 -17.25,15.07 c -0.245,0.214 -0.579,0.296 -0.894,0.219 -0.315,-0.077 -0.574,-0.303 -0.694,-0.605 l -8.41,-21.3 c -0.137,-0.347 -0.069,-0.742 0.177,-1.024 0.192,-0.22 0.468,-0.343 0.754,-0.343 0.078,0 0.157,0.009 0.235,0.028 l 25.66,6.23 c 0.363,0.088 0.647,0.371 0.735,0.734 C 0.402,-0.628 0.282,-0.246 0,0" id="path93" style="fill:#231f20;fill-opacity:1;fill-rule:nonzero;stroke:none"/></g><g id="g95" transform="translate(52.896,28.6313)"><path d="m 0,0 -12.74,10.5 c -0.229,0.189 -0.53,0.265 -0.823,0.211 -0.292,-0.056 -0.545,-0.239 -0.688,-0.499 l -3.77,-6.83 c -0.228,-0.412 -0.137,-0.926 0.217,-1.236 l 6.88,-6.01 c 0.184,-0.161 0.419,-0.247 0.658,-0.247 0.078,0 0.158,0.009 0.236,0.028 l 9.63,2.34 c 0.368,0.089 0.654,0.379 0.738,0.748 C 0.423,-0.626 0.292,-0.241 0,0" id="path97" style="fill:#231f20;fill-opacity:1;fill-rule:nonzero;stroke:none"/></g><g id="g99" transform="translate(36,44)"><path d="m 0,0 c 0,-1.657 -1.343,-3 -3,-3 -1.657,0 -3,1.343 -3,3 0,1.657 1.343,3 3,3 1.657,0 3,-1.343 3,-3" id="path101" style="fill:#231f20;fill-opacity:1;fill-rule:nonzero;stroke:none"/></g></g></g></g></svg>